<svg width="60" height="60" viewBox="0 0 60 60" fill="none" xmlns="http://www.w3.org/2000/svg">
<circle cx="30.1188" cy="29.829" r="29.4839" stroke="url(#paint0_linear_912_994)" stroke-width="0.69013"/>
<circle cx="30.1188" cy="29.829" r="29.829" fill="#14CF75"/>
<path d="M39.4018 21.8062H38.0771V23.8909C38.0771 24.5221 38.2806 24.9872 38.8121 24.9872C39.1526 24.9872 39.406 24.9083 39.406 24.9083V26.8642C39.406 26.8642 38.8536 27.1965 38.1103 27.1965H38.0771C38.0439 27.1965 38.0148 27.1923 37.9816 27.1923H37.9566C37.94 27.1923 37.9234 27.1881 37.9068 27.1881C36.4243 27.1092 35.4193 26.179 35.4193 24.5594V17.6866L38.0729 17.1219V19.1526H39.4018V21.8062ZM20.9179 21.1127C21.5615 21.748 21.9602 22.6243 21.9561 23.596C21.9561 25.5187 20.3946 27.0802 18.4719 27.0802H13.825V15.793H17.9569C19.8797 15.793 21.4411 17.3544 21.4411 19.2771C21.4411 19.9499 21.2501 20.5811 20.9179 21.1127ZM18.476 24.4224C18.9328 24.4224 19.3066 24.0528 19.3066 23.596C19.3066 23.135 18.9328 22.7655 18.476 22.7655H16.4827V24.4224H18.476ZM16.4869 18.4466V20.1077H17.9611C18.4179 20.1077 18.7917 19.7339 18.7917 19.2771C18.7917 18.8203 18.4179 18.4466 17.9611 18.4466H16.4869ZM26.8314 28.1474C27.5623 28.1474 28.1561 28.7454 28.1561 29.4763C28.1561 30.2114 27.5623 30.8052 26.8314 30.8052C26.0964 30.8052 25.5025 30.2114 25.5025 29.4763C25.5025 28.7454 26.0964 28.1474 26.8314 28.1474ZM26.8314 18.9989C29.0905 18.9989 30.926 20.8303 30.926 23.0977C30.926 25.3609 29.0905 27.1923 26.8314 27.1923C24.564 27.1923 22.7326 25.3609 22.7326 23.0977C22.7326 20.8303 24.5681 18.9989 26.8314 18.9989ZM26.8314 24.4224C27.5623 24.4224 28.1561 23.8286 28.1561 23.0977C28.1561 22.3626 27.5623 21.7688 26.8314 21.7688C26.0964 21.7688 25.5025 22.3626 25.5025 23.0977C25.5025 23.8286 26.0964 24.4224 26.8314 24.4224ZM34.3894 15.793V27.0802H31.7358V16.3577L34.3894 15.793Z" fill="white"/>
<path d="M43.7248 43.197C43.2763 43.6164 42.6949 43.878 41.9807 43.878C39.9001 43.878 38.2141 42.0716 38.2141 39.8374C38.2141 37.6074 39.9001 35.7968 41.9807 35.7968C42.6949 35.7968 43.2763 36.0542 43.7248 36.4695V32.5908H46.3868V43.878H43.7248V43.197ZM42.2838 41.1787C43.023 41.1787 43.6252 40.5807 43.6252 39.8415C43.6252 39.0982 43.023 38.5002 42.2838 38.5002C41.5405 38.5002 40.9425 39.0982 40.9425 39.8415C40.9425 40.5807 41.5405 41.1787 42.2838 41.1787ZM16.4827 39.5675V43.8822H13.825V32.595H20.9262V35.2527H16.4827V36.9055H20.1205V39.5675H16.4827ZM33.6295 35.8009C35.8927 35.8009 37.7365 37.6323 37.7365 39.8955C37.7365 42.1629 35.8927 43.9943 33.6295 43.9943C31.3621 43.9943 29.5265 42.1629 29.5265 39.8955C29.5265 37.6323 31.3662 35.8009 33.6295 35.8009ZM33.6295 41.2244C34.3645 41.2244 34.9584 40.6306 34.9584 39.8955C34.9584 39.1646 34.3645 38.5708 33.6295 38.5708C32.8944 38.5708 32.3006 39.1646 32.3006 39.8955C32.3006 40.6306 32.8944 41.2244 33.6295 41.2244ZM24.9419 35.8009C27.2093 35.8009 29.049 37.6323 29.049 39.8955C29.049 42.1629 27.2093 43.9943 24.9419 43.9943C22.6745 43.9943 20.839 42.1629 20.839 39.8955C20.839 37.6323 22.6786 35.8009 24.9419 35.8009ZM24.9419 41.2244C25.6769 41.2244 26.2749 40.6306 26.2749 39.8955C26.2749 39.1646 25.6769 38.5708 24.9419 38.5708C24.2069 38.5708 23.613 39.1646 23.613 39.8955C23.613 40.6306 24.2069 41.2244 24.9419 41.2244Z" fill="white"/>
<defs>
<linearGradient id="paint0_linear_912_994" x1="30.1188" y1="0" x2="30.1188" y2="59.6579" gradientUnits="userSpaceOnUse">
<stop offset="0.095" stop-color="#00A182"/>
<stop offset="0.81" stop-color="#F1CB38"/>
</linearGradient>
</defs>
</svg>
