<svg width="61" height="60" viewBox="0 0 61 60" fill="none" xmlns="http://www.w3.org/2000/svg">
<circle cx="30.4608" cy="29.829" r="29.829" fill="#F1CB38"/>
<circle cx="30.4608" cy="29.829" r="29.829" fill="#F1CB38"/>
<path d="M20.3604 25.0052C20.3604 19.3394 24.9699 14.7293 30.6356 14.7285H30.637C36.3034 14.7293 40.91 19.3393 40.8787 25.0012L40.8787 25.0012L40.8787 25.0094C40.8912 27.1564 40.219 29.2515 38.9598 30.9904L38.9517 31.0016L38.944 31.0131L38.677 31.4129L32.9564 39.4989L32.9462 39.5132L32.9401 39.5228C32.9385 39.5252 32.935 39.5302 32.9296 39.5375C32.9171 39.5546 32.8949 39.5837 32.8628 39.621C32.7981 39.6961 32.6969 39.8007 32.5596 39.9059C32.2881 40.1137 31.8824 40.3203 31.3218 40.3203H29.9507C29.3706 40.3203 28.9666 40.1117 28.7046 39.9085C28.5712 39.8051 28.4745 39.7026 28.4134 39.6294C28.3831 39.5931 28.3624 39.5649 28.351 39.5488C28.3467 39.5426 28.3437 39.5382 28.3422 39.5359L28.3325 39.5199L28.3176 39.4989L22.5914 31.4049L22.5854 31.3965L22.5792 31.3882L22.2778 30.9868C21.0297 29.2242 20.3604 27.1447 20.3604 25.0052ZM35.7435 28.6694L35.7436 28.6695L35.7512 28.659C36.5326 27.5879 36.954 26.2965 36.9548 24.9707V24.97C36.9544 23.2946 36.2886 21.688 35.104 20.5033C33.9193 19.3186 32.3126 18.6528 30.6372 18.6524H30.6368C28.9614 18.6528 27.3548 19.3186 26.1701 20.5033C24.9854 21.688 24.3196 23.2946 24.3192 24.97L24.3192 24.974C24.3261 26.2942 24.7451 27.5792 25.5175 28.6496L25.8188 29.0872L25.8187 29.0873L25.8252 29.0963L30.0433 35.0266L30.6389 35.8639L31.232 35.0248L35.4418 29.0679L35.7435 28.6694ZM30.5759 48.2409C29.2476 48.2101 28.2809 47.186 28.2809 45.9868C28.2809 44.709 29.2562 43.6993 30.602 43.6993C31.9509 43.6993 32.9246 44.7134 32.9246 45.9694C32.9246 47.2207 31.9597 48.2373 30.5759 48.2409Z" fill="#00A182" stroke="#00A182" stroke-width="1.45706"/>
</svg>
