<svg width="61" height="60" viewBox="0 0 61 60" fill="none" xmlns="http://www.w3.org/2000/svg">
<path d="M41.2506 19.3313C39.8859 17.9532 38.2605 16.8605 36.4691 16.1169C34.6778 15.3733 32.7564 14.9937 30.8169 15.0001C22.6902 15.0001 16.0668 21.6235 16.0668 29.7502C16.0668 32.3549 16.7515 34.8852 18.0315 37.1178L15.9478 44.7682L23.7619 42.7142C25.9201 43.89 28.3462 44.5151 30.8169 44.5151C38.9436 44.5151 45.567 37.8917 45.567 29.765C45.567 25.8208 44.0339 22.1147 41.2506 19.3313ZM30.8169 42.0146C28.6141 42.0146 26.4559 41.4192 24.5656 40.3029L24.1191 40.035L19.4753 41.2555L20.7106 36.7308L20.413 36.2694C19.1888 34.3152 18.539 32.0561 18.5376 29.7502C18.5376 22.9928 24.0447 17.4857 30.802 17.4857C34.0765 17.4857 37.1575 18.7657 39.4645 21.0877C40.6071 22.2246 41.5125 23.5771 42.1282 25.0666C42.744 26.5562 43.0578 28.1532 43.0516 29.765C43.0814 36.5224 37.5743 42.0146 30.8169 42.0146ZM37.5445 32.846C37.1724 32.6674 35.3565 31.7744 35.0291 31.6404C34.6868 31.5214 34.4486 31.4618 34.1956 31.819C33.9426 32.1911 33.243 33.0247 33.0346 33.2628C32.8263 33.5158 32.603 33.5456 32.2309 33.3521C31.8588 33.1735 30.6681 32.7716 29.269 31.5214C28.1676 30.539 27.4382 29.3334 27.215 28.9613C27.0066 28.5892 27.1852 28.3957 27.3787 28.2022C27.5424 28.0385 27.7508 27.7706 27.9294 27.5622C28.108 27.3538 28.1824 27.1901 28.3015 26.952C28.4206 26.6989 28.361 26.4906 28.2717 26.312C28.1824 26.1333 27.4382 24.3175 27.1406 23.5733C26.8429 22.8589 26.5303 22.9482 26.307 22.9333H25.5926C25.3396 22.9333 24.9526 23.0226 24.6103 23.3947C24.2828 23.7668 23.3302 24.6598 23.3302 26.4757C23.3302 28.2915 24.6549 30.0478 24.8335 30.286C25.0121 30.539 27.4382 34.26 31.1295 35.8526C32.0076 36.2396 32.6923 36.4629 33.2281 36.6266C34.1063 36.9094 34.91 36.8647 35.55 36.7754C36.2645 36.6712 37.738 35.8824 38.0357 35.0191C38.3482 34.1558 38.3482 33.4265 38.244 33.2628C38.1399 33.0991 37.9166 33.0247 37.5445 32.846Z" fill="url(#paint0_linear_912_958)"/>
<circle cx="30.7767" cy="29.829" r="29.4839" stroke="url(#paint1_linear_912_958)" stroke-width="0.69013"/>
<defs>
<linearGradient id="paint0_linear_912_958" x1="30.7574" y1="15" x2="30.7574" y2="44.7682" gradientUnits="userSpaceOnUse">
<stop stop-color="#40B848"/>
<stop offset="1" stop-color="#108E3C"/>
</linearGradient>
<linearGradient id="paint1_linear_912_958" x1="30.7767" y1="0" x2="30.7767" y2="59.6579" gradientUnits="userSpaceOnUse">
<stop stop-color="#40B848"/>
<stop offset="1" stop-color="#118F3D"/>
</linearGradient>
</defs>
</svg>
