<svg width="60" height="60" viewBox="0 0 60 60" fill="none" xmlns="http://www.w3.org/2000/svg">
<circle cx="30.0926" cy="29.829" r="29.4839" stroke="url(#paint0_linear_912_954)" stroke-width="0.69013"/>
<path d="M26.1526 34.3403V35.5478L27.219 34.9814L34.7542 30.9793L35.9613 30.3382L34.7542 29.6971L27.219 25.695L26.1526 25.1286V26.3361V34.3403ZM43.345 26.4886L43.345 26.4886L43.3459 26.4983C43.4457 27.546 43.4878 28.4433 43.4878 29.2176V29.2458L43.49 29.2739L43.5749 30.3663C43.5734 33.2498 43.3416 35.3046 42.9665 36.5736C42.6833 37.5082 42.053 38.1096 40.9715 38.3859C40.3729 38.538 39.1974 38.6573 37.2726 38.7376L37.267 38.7379C35.3913 38.8307 33.6755 38.8704 32.0907 38.8704H32.0781L32.0656 38.8709L29.7697 38.9505C26.7408 38.9503 24.2907 38.8971 22.4161 38.7981C20.5235 38.6981 19.2655 38.5535 18.592 38.3856C17.5104 38.1091 16.8803 37.507 16.5974 36.5717C16.4305 36.017 16.305 35.2358 16.2195 34.1878L16.2196 34.1878L16.2186 34.1781C16.1189 33.1304 16.0767 32.2331 16.0767 31.4588V31.4306L16.0745 31.4025L15.9896 30.3101C15.9911 27.4267 16.2229 25.372 16.598 24.1029C16.8812 23.1682 17.5116 22.5667 18.5933 22.2905C19.192 22.1384 20.3674 22.0191 22.2919 21.9387L22.2919 21.9388L22.2975 21.9385C24.1732 21.8457 25.889 21.806 27.4738 21.806H27.4864L27.499 21.8055L29.7948 21.7259C32.8237 21.7261 35.2738 21.7793 37.1485 21.8783C39.041 21.9783 40.299 22.1229 40.9725 22.2908C42.0539 22.5673 42.684 23.1691 42.9669 24.1041C43.1339 24.6588 43.2594 25.4402 43.345 26.4886Z" fill="#FF0000" stroke="#FF0000" stroke-width="1.45186"/>
<defs>
<linearGradient id="paint0_linear_912_954" x1="30.0926" y1="0" x2="30.0926" y2="59.6579" gradientUnits="userSpaceOnUse">
<stop stop-color="#FF0000"/>
<stop offset="1" stop-color="#990000"/>
</linearGradient>
</defs>
</svg>
