<svg width="363" height="125" viewBox="0 0 363 125" fill="none" xmlns="http://www.w3.org/2000/svg">
<path fill-rule="evenodd" clip-rule="evenodd" d="M254.904 66.5373H228.688V49.4967H237.916L238.178 54.7399C238.283 55.9459 239.227 56.8897 240.433 56.8897C241.691 56.8897 242.74 55.841 242.687 54.5302L240.537 11.745C240.485 10.539 239.489 9.59521 238.283 9.59521C237.024 9.59521 235.976 10.6963 236.081 11.9547L236.29 16.9883H228.688V12.0596C228.688 10.6963 227.586 9.59521 226.223 9.59521C224.86 9.59521 223.759 10.6963 223.759 12.0596V16.9883H216.104L216.366 11.9547C216.418 10.6963 215.422 9.59521 214.111 9.59521C212.958 9.59521 211.962 10.539 211.909 11.745L209.759 54.5302C209.707 55.841 210.703 56.8897 212.014 56.8897C213.167 56.8897 214.164 55.9459 214.216 54.7399L214.478 49.4967H223.759V66.5373H184.277V39.9014H193.558L193.82 45.1447C193.872 46.3507 194.868 47.2945 196.074 47.2945C197.333 47.2945 198.381 46.1934 198.277 44.935L196.179 2.09732C196.127 0.943792 195.131 0 193.925 0C192.666 0 191.618 1.04866 191.67 2.35948L191.932 7.3406H184.277V2.46435C184.277 1.1011 183.176 0 181.865 0C180.502 0 179.401 1.1011 179.401 2.46435V7.3406H171.745L172.008 2.35948C172.06 1.04866 171.011 0 169.753 0C168.547 0 167.603 0.943792 167.498 2.09732L165.401 44.935C165.296 46.1934 166.345 47.2945 167.603 47.2945C168.809 47.2945 169.805 46.3507 169.858 45.1447L170.12 39.9014H179.401V66.5373H139.919V49.4967H149.199L149.461 54.7399C149.514 55.9459 150.51 56.8897 151.716 56.8897C152.975 56.8897 153.971 55.841 153.918 54.5302L151.821 11.745C151.716 10.539 150.772 9.59521 149.566 9.59521C148.256 9.59521 147.259 10.6963 147.312 11.9547L147.574 16.9883H139.919V12.0596C139.919 10.6963 138.818 9.59521 137.454 9.59521C136.144 9.59521 135.042 10.6963 135.042 12.0596V16.9883H127.387L127.649 11.9547C127.702 10.6963 126.653 9.59521 125.395 9.59521C124.189 9.59521 123.193 10.539 123.14 11.745L121.043 54.5302C120.938 55.841 121.987 56.8897 123.245 56.8897C124.451 56.8897 125.447 55.9459 125.5 54.7399L125.762 49.4967H135.042V66.5373H108.774V76.8666L102.691 125H163.671V106.281C163.671 97.1057 170.54 89.5029 179.401 88.297V101.982H176.727C175.363 101.982 174.262 103.083 174.262 104.446C174.262 105.81 175.363 106.858 176.727 106.858H186.951C188.314 106.858 189.415 105.81 189.415 104.446C189.415 103.083 188.314 101.982 186.951 101.982H184.277V88.297C193.138 89.5029 200.007 97.1057 200.007 106.281V125H260.986L254.904 77.0239V66.5373ZM125.919 46.6128L126.496 34.763H135.042V46.6128H125.919ZM127.23 19.9769H135.042V31.8268H126.653L127.23 19.9769ZM139.919 34.763H148.465L149.042 46.6128H139.919V34.763ZM139.919 19.9245H147.731L148.308 31.7743H139.919V19.9245ZM170.225 36.9652L170.854 25.1154H179.348V36.9652H170.225ZM171.588 10.3293H179.348V22.1791H171.011L171.588 10.3293ZM184.277 25.1154H192.824L193.4 36.9652H184.277V25.1154ZM184.277 10.3293H192.037L192.666 22.1791H184.277V10.3293ZM214.583 46.5604L215.212 34.7106H223.707V46.5604H214.583ZM215.946 19.9245H223.707V31.7743H215.317L215.946 19.9245ZM228.688 34.7106H237.182L237.811 46.5604H228.688V34.7106ZM228.688 19.9245H236.448L237.077 31.7743H228.688V19.9245ZM255.743 120.386H204.621V106.281C204.621 93.6976 194.396 83.5256 181.865 83.5256C169.281 83.5256 159.109 93.6976 159.109 106.281V120.386H107.935L113.388 77.2861V71.1514H181.839H250.29V77.1812L255.743 120.386Z" fill="white"/>
<path fill-rule="evenodd" clip-rule="evenodd" d="M359.218 120.333H276.321V124.947H362.101L359.218 120.333ZM0 124.947H85.7802V120.333H2.88381L0 124.947Z" fill="white"/>
</svg>
